<svg preserveAspectRatio="none" width="100%" height="100%" overflow="visible" style="display: block;" viewBox="0 0 259 124.736" fill="none" xmlns="http://www.w3.org/2000/svg">
<g id="logo" clip-path="url(#clip0_0_172)">
<path id="Vector" d="M110.58 1.86934C108.955 2.95489 107.77 4.32528 106.702 5.94349C102.764 6.01037 99.0597 7.13732 96.263 10.0417C93.5975 12.8097 92.6886 16.1694 92.8131 19.9321L92.8248 20.2167C93.3204 23.5938 94.6819 26.3607 97.4351 28.4441C98.0868 28.9371 99.5363 29.6544 101.012 30.3847C102.916 31.3265 104.863 32.2901 105.201 32.8228C106.362 34.4826 109.465 35.4521 111.388 35.8053C114.399 36.3576 117.086 36.1101 119.984 35.2515C124.115 41.656 125.857 48.3821 126.816 55.8924L126.474 56.5281C125.612 55.7706 124.902 54.6042 124.197 53.4469C123.697 52.6253 123.2 51.8083 122.653 51.1455C117.158 44.4785 108.809 39.7625 99.967 40.2601C98.2194 40.3583 94.192 40.7653 92.827 41.933C92.6209 43.5521 94.3922 46.1042 95.3993 47.3932C101.293 54.9382 110.877 56.7937 119.794 58.5204C120.613 58.679 121.427 58.8364 122.231 58.9971C122.29 59.0089 122.353 59.0208 122.418 59.0333C123.102 59.1631 124.076 59.3482 124.245 60.0089L124.152 60.2509C115.048 58.7187 105.541 59.8236 97.8657 65.3255C91.3053 70.0284 87.539 77.4519 86.2673 85.3058C84.7577 94.628 86.3333 105.061 91.9448 112.822C96.4816 119.097 103.182 123.078 110.811 124.284C119.241 125.617 128.402 124.05 135.37 118.949C141.981 114.107 145.725 106.707 146.937 98.721C148.396 89.1096 147.056 78.8918 141.171 70.9359C138.629 67.5001 135.63 65.1625 131.977 63.0087C131.898 62.9621 131.818 62.9178 131.739 62.8739C131.29 62.6248 130.87 62.3916 130.747 61.8289C138.939 59.0255 147.042 55.6496 153.564 49.7818C156.728 46.9353 162.242 40.3018 162.468 36.1046C162.098 35.5103 161.982 35.4026 161.299 35.2017C159.883 34.784 158.1 34.7278 156.612 34.696C148.7 34.5249 142.022 38.1414 137.107 44.1965C136.815 44.5552 136.381 45.2309 135.896 45.9841C134.953 47.4516 133.82 49.2132 133.187 49.4969C133.131 49.5223 133.073 49.5443 133.016 49.5663C132.985 49.5781 132.954 49.59 132.924 49.6023C133.452 47.4225 134.152 45.2607 134.852 43.1003C135.363 41.5239 135.873 39.9484 136.316 38.3672L136.548 38.1843C142.132 33.7497 146.13 27.0742 146.906 19.9347C147.485 14.6201 146.228 9.97135 142.882 5.78805C142.329 6.0755 141.782 6.37222 141.255 6.70252C136.516 9.68099 133.963 15.4368 132.822 20.7311C131.676 26.048 131.412 33.7259 134.466 38.448C132.544 44.49 130.68 50.5498 128.871 56.626C128.13 48.8039 125.811 40.9543 121.716 34.2409C122.381 33.6365 122.997 32.9811 123.559 32.2808C125.904 29.3921 128.7 23.8453 128.312 20.0647C127.885 19.5156 127.41 16.9494 127.006 14.765C126.778 13.533 126.572 12.4224 126.41 11.8637C125.617 9.11739 124.546 6.54938 123.324 3.96981C122.137 2.14666 120.374 0.685345 118.206 0.204226C115.518 -0.392397 112.833 0.364609 110.58 1.86934ZM113.406 62.2306C117.204 61.8558 120.71 62.2329 124.013 64.312C129.346 67.6686 131.928 73.9509 133.268 79.8514C135.567 89.9873 135.555 106.458 129.731 115.507C127.36 119.19 124.303 120.984 120.113 121.893C116.204 122.314 112.48 121.925 109.129 119.714C103.624 116.082 101.207 109.18 99.9337 102.998C97.8003 92.6422 97.5093 77.7495 103.647 68.5755C106.104 64.9037 109.161 63.104 113.406 62.2306Z" fill="var(--fill-0, #353C3A)"/>
<path id="Vector_2" d="M106.701 5.9435C107.769 4.32529 108.954 2.95489 110.579 1.86933C112.832 0.364608 115.517 -0.392391 118.205 0.204231C120.373 0.68535 122.136 2.14665 123.323 3.96981C119.61 5.04495 118.343 6.47239 116.19 9.66653C115.624 11.2222 115.138 12.85 115.001 14.5084C117.614 16.8112 119.293 19.4027 119.525 22.9694C119.553 23.3955 119.584 23.4748 119.352 23.8202L118.402 23.5394C117.556 24.1574 117.344 25.2105 117.186 26.1977C116.905 27.9606 116.863 29.8617 116.898 31.6457C114.718 31.0077 112.799 30.7863 110.53 30.8919C108.663 31.3539 106.901 31.8927 105.2 32.8228C104.601 31.877 98.926 29.5728 97.4343 28.4441C94.681 26.3607 93.3196 23.5938 92.824 20.2167L92.8121 19.9321C92.6876 16.1694 93.5966 12.8097 96.2621 10.0417C99.0588 7.13732 102.763 6.01037 106.701 5.9435Z" fill="var(--fill-0, #EAE9E8)"/>
<path id="Vector_3" d="M106.701 5.94349C107.769 4.32529 108.954 2.95489 110.579 1.86933C112.832 0.364608 115.517 -0.392391 118.205 0.204231C120.373 0.68535 122.136 2.14665 123.323 3.96981C119.61 5.04495 118.343 6.47239 116.19 9.66653C115.624 11.2222 115.138 12.85 115.001 14.5084L112.393 13.4561C111.352 13.4839 109.302 13.2749 108.411 13.7248L107.261 14.2838C106.818 14.6867 106.301 15.294 105.791 15.5873L104.828 17.2504L104.161 17.2915C101.061 17.2359 98.1334 17.574 95.2959 18.9129C94.4937 19.2915 93.6519 19.9654 92.824 20.2167L92.8121 19.9321C92.6876 16.1694 93.5966 12.8097 96.2621 10.0417C99.0588 7.13732 102.763 6.01037 106.701 5.94349Z" fill="var(--fill-0, #DB8778)"/>
<path id="Vector_4" d="M112.394 13.4561C112.869 12.1841 113.269 10.6201 114.249 9.64973C115.134 9.29193 115.312 9.40917 116.191 9.66652C115.624 11.2222 115.139 12.8499 115.002 14.5084L112.394 13.4561Z" fill="var(--fill-0, #353C3A)"/>
<path id="Vector_5" d="M107.261 14.2837C106.324 13.6394 105.247 12.9817 104.488 12.1228C103.996 11.5661 103.739 10.9602 103.773 10.218L104.266 9.97481C106.341 10.4299 107.229 12.1274 108.411 13.7248L107.261 14.2837Z" fill="var(--fill-0, #353C3A)"/>
<path id="Vector_6" d="M104.16 17.2915C103.77 17.2431 103.33 17.2084 102.951 17.0967C102.318 16.9099 102.216 16.6477 101.975 16.1037C102.245 15.7251 102.31 15.6206 102.739 15.4321C103.775 14.9768 104.775 15.2075 105.79 15.5873L104.827 17.2504L104.16 17.2915Z" fill="var(--fill-0, #353C3A)"/>
<path id="Vector_7" d="M109.332 7.63086C109.682 7.78225 110.026 7.96289 110.247 8.28769C111.135 9.59181 110.987 12.1951 110.825 13.7062L109.591 13.3397C109.422 13.1545 109.291 13.0071 109.187 12.7758C108.459 11.1628 108.76 9.23603 109.332 7.63086Z" fill="var(--fill-0, #353C3A)"/>
<path id="Vector_8" d="M104.162 17.2915L104.829 17.2504C104.016 20.325 103.578 23.4346 105.28 26.3233C106.495 28.3853 108.465 29.7734 110.531 30.8919C108.664 31.3539 106.902 31.8927 105.201 32.8228C104.602 31.877 98.9272 29.5728 97.4355 28.4441C94.6822 26.3607 93.3208 23.5938 92.8252 20.2167C93.6531 19.9654 94.4949 19.2915 95.2971 18.9129C98.1346 17.574 101.062 17.2359 104.162 17.2915Z" fill="var(--fill-0, #EBB19F)"/>
<path id="Vector_9" d="M132.923 49.6023C133.01 49.5673 133.1 49.536 133.187 49.4969C134.145 49.0676 136.247 45.2543 137.106 44.1965C142.022 38.1414 148.7 34.5249 156.612 34.696C158.1 34.7278 159.883 34.784 161.298 35.2017C161.982 35.4026 162.097 35.5103 162.468 36.1046C162.242 40.3018 156.728 46.9353 153.563 49.7818C147.041 55.6496 138.939 59.0255 130.746 61.8288C135.002 56.4401 139.981 51.1522 145.307 46.8201C147.16 45.313 154.985 40.5241 155.552 39.539C155.3 39.3749 155.266 39.2704 154.953 39.3158C147.878 40.3449 134.249 54.8801 130.017 60.3756C130.553 56.6338 131.473 53.1001 132.923 49.6023Z" fill="var(--fill-0, #97A898)"/>
<path id="Vector_10" d="M124.152 60.2509L124.245 60.0089C124.06 59.2849 122.907 59.132 122.231 58.9971C112.668 57.0866 101.834 55.631 95.3992 47.3933C94.3921 46.1042 92.6207 43.5521 92.8268 41.933C94.192 40.7653 98.2193 40.3583 99.9669 40.2601C108.809 39.7625 117.158 44.4785 122.653 51.1455C123.97 52.7417 125 55.2327 126.474 56.5281L126.815 55.8924C126.966 56.7867 127.027 57.4904 126.897 58.3985C125.834 58.0581 124.155 55.8765 123.156 55.0859C117.521 50.6184 107.636 44.5424 100.177 44.7567L99.984 45.0198C101.842 46.4666 104.981 47.0415 107.197 47.8101C113.882 50.1291 121.336 54.5264 125.597 60.3096L125.368 60.5667C124.998 60.4825 124.476 60.4341 124.152 60.2509Z" fill="var(--fill-0, #97A898)"/>
<path id="Vector_11" d="M142.88 5.78802C146.227 9.97132 147.483 14.6201 146.904 19.9347C146.128 27.0742 142.13 33.7497 136.546 38.1842L136.315 38.3672C137.606 31.9968 138.564 25.2817 140.457 19.0778C140.871 17.7283 141.792 15.2914 141.109 14.0067L140.631 14.1978C137.716 18.8115 136.24 32.3989 134.465 38.4479C131.411 33.7259 131.674 26.048 132.821 20.7311C133.961 15.4367 136.515 9.68097 141.253 6.70249C141.78 6.37219 142.327 6.07548 142.88 5.78802Z" fill="var(--fill-0, #97A898)"/>
<path id="Vector_12" d="M116.19 9.66654C118.343 6.4724 119.61 5.04496 123.323 3.96983C124.545 6.5494 125.616 9.1174 126.409 11.8637C126.858 13.413 127.643 19.2058 128.311 20.0647C125.937 20.5444 124.29 21.8213 122.97 23.8309C122.236 24.9503 121.66 26.2261 121.129 27.4546C120.541 26.3668 119.589 25.0247 119.351 23.8202C119.584 23.4748 119.553 23.3955 119.525 22.9694C119.293 19.4027 117.614 16.8112 115.001 14.5084C115.138 12.85 115.624 11.2222 116.19 9.66654Z" fill="var(--fill-0, #EBB19F)"/>
<path id="Vector_13" d="M229.433 59.748C227.167 59.6806 224.909 59.8053 222.651 59.9938C217.165 61.1002 210.577 62.9705 207.294 67.9054C205.655 70.3683 204.926 73.4101 205.508 76.333C205.936 78.4801 207.085 80.4428 208.944 81.6491C210.663 82.7644 213.133 83.2739 215.145 82.8229C216.815 82.4486 218.236 81.3651 219.137 79.9217C220.159 78.283 220.457 76.2039 220.017 74.3307C219.745 73.1749 218.955 72.2651 218.187 71.3809C216.912 69.9121 215.698 68.5139 217.02 66.1757C218.097 64.2747 220.651 63.1419 222.677 62.6741C225.809 61.951 229.552 62.1721 232.32 63.9281C235.026 65.6462 236.537 68.4687 237.206 71.5401C238.031 75.3499 238.225 80.9077 236.005 84.2344C233.99 87.2532 228.866 88.4387 223.109 89.7704C214.858 91.679 205.308 93.8881 201.753 102.226C200.386 105.43 200.795 108.72 201.103 111.196C201.274 112.573 201.414 113.699 201.2 114.418C201.238 114.468 201.276 114.517 201.313 114.566C201.758 115.166 202.118 115.813 202.479 116.46C202.742 116.932 203.005 117.405 203.302 117.86C205.774 121.661 209.109 123.312 213.518 123.992C220.17 125.017 227.546 123.556 233.003 119.514C234.305 118.549 236.714 116.38 236.971 114.706C236.994 114.735 237.016 114.764 237.037 114.793L237.064 114.832C237.862 116.028 238.146 117.224 238.414 118.349C238.976 120.714 239.464 122.765 244.492 123.834C248.264 124.637 254.106 124.23 257.452 122.005C258.139 121.55 258.845 120.842 258.978 120.001C258.996 119.89 259 119.808 259 119.72C259 119.65 258.997 119.577 258.995 119.483C258.939 119.43 258.891 119.383 258.849 119.342C258.6 119.098 258.554 119.052 258.101 119.064C257.437 119.081 256.757 119.203 256.078 119.324C254.35 119.633 252.626 119.941 251.182 118.531C249.041 116.439 249.082 111.597 249.108 108.491C249.11 108.251 249.112 108.022 249.112 107.804C249.165 101.088 249.179 94.3715 249.159 87.655C249.133 72.4705 248.646 60.3192 229.433 59.748ZM236.303 87.7835L237.131 87.758L237.38 88.1048C237.618 90.0364 237.55 91.9787 237.482 93.9206C237.45 94.8099 237.419 95.699 237.417 96.5869C237.415 97.7583 237.454 98.951 237.494 100.151C237.59 103.022 237.687 105.938 237.212 108.707C236.945 110.272 236.372 111.769 235.53 113.115C233.677 116.068 230.617 117.905 227.251 118.623C223.264 119.474 220.135 118.593 216.783 116.443C216.579 116.081 216.382 115.735 216.192 115.402C214.232 111.963 213.061 109.91 213.457 105.319C214.203 96.6499 222.818 93.4286 229.891 90.7844L230.435 90.5808L230.814 90.4383C231.08 90.3384 231.374 90.2333 231.684 90.1222L231.689 90.1207C233.173 89.5903 235.043 88.9222 236.06 88.0113C236.093 87.9817 236.126 87.9513 236.159 87.9208C236.207 87.8751 236.254 87.8289 236.303 87.7835Z" fill="var(--fill-0, #353C3A)"/>
<path id="Vector_14" d="M230.541 90.5406C230.454 90.5733 230.367 90.606 230.279 90.6387L230.434 90.5808L230.541 90.5406Z" fill="var(--fill-0, #EAE9E8)"/>
<path id="Vector_15" d="M31.2742 25.5107C32.677 25.357 34.2 25.4088 35.6069 25.5475C41.0288 26.0381 46.0288 28.6788 49.4913 32.8798C51.8031 35.734 53.1494 39.1948 52.728 42.8952C52.4813 45.0609 51.6722 47.1541 49.9151 48.5335C48.0372 50.0078 45.3468 50.7388 42.9797 50.4467C40.9863 50.2006 39.2465 49.1463 38.031 47.5545C36.9489 46.1374 36.4776 44.0277 36.7422 42.2723C37.3232 38.417 41.3612 38.0623 43.9242 36.1199C44.6129 35.5983 44.9018 35.0691 45.026 34.2235C44.8694 33.2358 44.467 32.5914 43.8027 31.8755C41.3369 29.219 37.5832 27.9936 34.0289 27.9047C30.9673 27.8277 27.9364 28.6441 25.7141 30.8401C20.407 36.0829 21.8628 52.6288 21.8785 59.8065C25.4316 59.8398 45.7746 59.2113 47.6079 60.5609C47.788 61.1584 47.7092 61.5046 47.5555 62.1018C46.1631 63.0539 25.4206 62.5496 21.8582 62.6012L21.8874 83.1306C23.7181 83.1344 25.5572 83.1578 27.3861 83.0814C40.2652 82.5433 36.4093 73.2466 39.5047 70.1676C39.8289 69.8452 39.9977 69.9334 40.4453 69.9334C41.3415 71.1223 40.9371 93.349 40.9365 96.685C40.9463 97.4681 40.8902 98.2343 40.8259 99.0136L40.2727 99.4649C39.5563 99.4736 39.3802 99.5848 38.8201 99.1063C38.3824 95.5002 37.3487 90.9258 34.6571 88.3393C31.3199 85.1321 26.1428 85.8046 21.8871 85.859C21.8625 91.9853 20.508 114.308 24.4343 118.564C26.5828 120.893 30.5206 120.586 32.0341 122.482L31.9669 122.896C31.1257 123.362 30.0925 123.388 29.15 123.427C26.4436 123.539 2.13174 123.48 0.796075 123.074C0.528594 122.993 0.631653 122.978 0.354909 123.013C0.302512 123.02 0.251847 123.036 0.200609 123.047L0.0651264 122.727C0.431031 121.357 5.9972 120.273 7.58906 118.612C11.0782 114.97 9.81488 92.1853 9.78014 85.905C7.3288 85.8659 2.42413 86.7222 0.58331 85.2105C0.241143 84.5421 0.14618 84.4179 0.223472 83.6827C1.58346 82.4665 7.82151 83.0478 9.75641 83.0418C9.78767 76.1955 9.78303 69.349 9.7425 62.5024C6.7646 62.558 2.77295 63.0825 0.0715047 61.6571L0 60.804C1.85703 59.2539 7.34473 59.8236 9.76045 59.8427C9.65248 50.9512 9.78101 40.3626 15.6783 33.0801C19.5817 28.2596 25.2949 26.1345 31.2742 25.5107Z" fill="var(--fill-0, #353C3A)"/>
<path id="Vector_16" d="M74.3882 21.0067L74.7223 21.0724C75.1768 21.6045 75.1776 21.8899 75.2127 22.5678C75.593 29.9349 75.184 37.5396 75.1811 44.9332L75.1687 91.7077C75.1678 97.3228 74.3619 112.428 76.1471 116.835C78.1286 121.728 82.7577 120.183 84.25 122.481L84.0167 123.094C82.6651 123.62 59.4344 123.336 55.6865 123.451C55.3898 123.451 55.4483 123.483 55.2271 123.395C54.6586 123.169 54.6736 122.945 54.4357 122.421C54.9979 120.491 59.1276 121.269 60.8118 119.395C62.2717 117.771 62.8405 115.612 63.1074 113.5C63.6609 109.123 63.4912 104.625 63.4895 100.219L63.4727 81.669L63.4597 55.1062C63.4666 49.2092 63.6154 43.2768 63.3318 37.3864C63.02 30.9081 63.24 29.6998 56.8361 27.718C56.1891 27.5177 55.2697 27.3017 54.79 26.796C54.4881 26.4776 54.5781 26.3693 54.5709 25.9585L54.8401 25.9927C55.3467 25.4048 57.6721 25.2783 58.4849 25.1749C64.047 24.4668 69.3486 23.57 74.3882 21.0067Z" fill="var(--fill-0, #353C3A)"/>
<path id="Vector_17" d="M168.839 59.3952L169.711 59.5049C169.78 59.6134 169.893 59.7706 169.942 59.8994C170.591 61.5906 170.235 72.916 169.58 74.4572C170.515 73.644 170.918 72.4957 171.474 71.4156C173.439 67.5973 175.868 64.2472 179.79 62.2431C183.866 60.1603 189.155 59.0753 193.575 60.5629C196.03 61.3888 198.013 63.0832 199.139 65.4239C200.312 67.8657 200.543 70.74 199.6 73.297C198.83 75.3775 197.284 77.2333 195.246 78.1637C193.315 79.0452 191.173 78.9693 189.219 78.1892C187.245 77.4001 185.571 75.99 184.767 73.9888C183.215 70.1401 185.302 68.7483 186.503 65.584C186.738 64.9717 186.694 64.7827 186.425 64.2087C185.6 63.8112 184.735 63.9811 183.881 64.1861C173.008 66.7934 170.457 79.6436 170.237 89.2329C170.182 91.5951 170.269 99.8748 170.269 99.8748C170.269 99.8748 170.18 107.833 170.269 110.119C170.486 115.674 170.868 119.44 176.809 121.222C177.677 121.483 178.783 121.645 179.446 122.296C179.622 122.469 179.536 122.783 179.533 123.02C179.466 123.07 179.4 123.124 179.333 123.172C178.965 123.425 151.3 123.521 149.765 123.137L149.58 122.499C150.22 120.085 154.869 121.294 156.661 119.013C157.552 117.877 157.897 116.398 158.099 114.998C159.191 107.488 158.664 99.3732 158.647 91.7702C158.632 85.4717 159.034 78.7624 158.178 72.5394C156.988 63.8801 153.835 67.9456 150.254 65.2181C149.942 64.5346 149.991 64.4617 150.162 63.7186C156.261 62.5638 163.032 62.512 168.639 59.5043L168.839 59.3952Z" fill="var(--fill-0, #353C3A)"/>
</g>
<defs>
<clipPath id="clip0_0_172">
<rect width="259" height="124.736" fill="white"/>
</clipPath>
</defs>
</svg>
